<svg width="116" height="34" viewBox="0 0 116 34" fill="none" xmlns="http://www.w3.org/2000/svg">
<path d="M0.550049 13.4501V16.0501H3.05005V13.4501H0.550049Z" fill="#756257"/>
<path d="M12.1501 5.05005C10.5501 5.05005 9.35007 5.75005 8.55007 6.75005H8.45007V0.550049H6.45007V16.05H8.45007V10.75C8.45007 8.65005 9.75007 7.15005 11.7501 7.15005C13.5501 7.15005 14.6501 8.55005 14.6501 10.35V16.05H16.6501V9.95005C16.7501 6.95005 14.8501 5.05005 12.1501 5.05005Z" fill="#756257"/>
<path d="M27.1501 5.35002H22.3501V1.65002H20.3501V5.45002H18.4501V7.45002H20.3501V13.45C20.3501 15.15 21.3501 16.15 23.0501 16.15H27.1501V14.15H23.4501C22.7501 14.15 22.3501 13.75 22.3501 13.05V7.35002H27.1501V5.35002Z" fill="#756257"/>
<path d="M41.65 5.15002C40.05 5.15002 38.75 5.95002 38.15 7.25002H38.05C37.45 6.05002 36.25 5.15002 34.65 5.15002C33.25 5.15002 32.15 5.95002 31.55 6.95002H31.45V5.35002H29.55V15.95H31.55V10.55C31.55 8.55002 32.55 7.05002 34.15 7.05002C35.65 7.05002 36.55 8.05002 36.55 9.65002V15.95H38.55V10.35C38.55 7.95002 39.95 7.05002 41.15 7.05002C42.65 7.05002 43.55 8.05002 43.55 9.65002V15.95H45.55V9.45002C45.65 6.95002 44.15 5.15002 41.65 5.15002Z" fill="#756257"/>
<path d="M48.3501 13.25C48.3501 14.95 49.3501 15.95 51.1501 15.95H53.1501V13.95H51.4501C50.7501 13.95 50.3501 13.55 50.3501 12.85V0.550049H48.3501V13.25V13.25Z" fill="#756257"/>
<path d="M29.45 20.2501C28.55 19.1501 27.25 18.4501 25.55 18.4501C22.45 18.4501 20.15 20.7501 20.15 24.0501C20.15 27.3501 22.45 29.6501 25.55 29.6501C27.35 29.6501 28.55 28.8501 29.35 27.7501H29.45V29.3501H31.45V18.7501H29.45V20.2501V20.2501ZM25.85 27.6501C23.65 27.6501 22.25 26.0501 22.25 24.0501C22.25 22.0501 23.65 20.4501 25.85 20.4501C28.05 20.4501 29.45 22.0501 29.45 24.0501C29.45 25.9501 28.05 27.6501 25.85 27.6501Z" fill="#756257"/>
<path d="M44.75 22.5501C44.25 20.1501 42.15 18.4501 39.35 18.4501C35.95 18.4501 33.75 20.9501 33.75 24.0501C33.75 27.1501 35.95 29.6501 39.35 29.6501C42.15 29.6501 44.25 27.8501 44.75 25.4501H42.65C42.25 26.7501 40.95 27.7501 39.35 27.7501C37.15 27.7501 35.75 26.1501 35.75 24.1501C35.75 22.1501 37.15 20.5501 39.35 20.5501C40.95 20.5501 42.15 21.5501 42.65 22.7501H44.75V22.5501Z" fill="#756257"/>
<path d="M55.6501 20.2501C54.7501 19.1501 53.4501 18.4501 51.7501 18.4501C48.6501 18.4501 46.3501 20.7501 46.3501 24.0501C46.3501 27.3501 48.6501 29.6501 51.7501 29.6501C53.5501 29.6501 54.7501 28.8501 55.5501 27.7501H55.6501V29.3501H57.6501V18.7501H55.6501V20.2501ZM52.0501 27.6501C49.8501 27.6501 48.4501 26.0501 48.4501 24.0501C48.4501 22.0501 49.8501 20.4501 52.0501 20.4501C54.2501 20.4501 55.6501 22.0501 55.6501 24.0501C55.6501 25.9501 54.1501 27.6501 52.0501 27.6501Z" fill="#756257"/>
<path d="M69.2501 20.3501C68.3501 19.2501 67.0501 18.4501 65.3501 18.4501C62.2501 18.4501 59.9501 20.7501 59.9501 24.0501C59.9501 27.3501 62.1501 29.6501 65.3501 29.6501C67.0501 29.6501 68.3501 28.8501 69.1501 27.8501H69.2501V29.3501H71.2501V13.9501H69.2501V20.3501V20.3501ZM65.6501 27.6501C63.4501 27.6501 62.0501 26.0501 62.0501 24.0501C62.0501 22.0501 63.4501 20.4501 65.6501 20.4501C67.8501 20.4501 69.2501 22.0501 69.2501 24.0501C69.1501 26.0501 67.7501 27.6501 65.6501 27.6501Z" fill="#756257"/>
<path d="M78.8501 18.4501C75.5501 18.4501 73.3501 20.9501 73.3501 24.0501C73.3501 27.0501 75.4501 29.6501 78.8501 29.6501C81.3501 29.6501 83.3501 28.3501 84.0501 26.0501H81.9501C81.4501 27.0501 80.3501 27.6501 78.9501 27.6501C77.0501 27.6501 75.6501 26.3501 75.5501 24.7501H84.3501C84.5501 21.1501 82.3501 18.4501 78.8501 18.4501ZM78.8501 20.3501C80.5501 20.3501 81.8501 21.3501 82.1501 22.9501H75.6501C75.9501 21.4501 77.1501 20.3501 78.8501 20.3501Z" fill="#756257"/>
<path d="M98.75 18.4501C97.15 18.4501 95.85 19.2501 95.15 20.4501H95.05C94.45 19.2501 93.25 18.4501 91.65 18.4501C90.25 18.4501 89.15 19.1501 88.55 20.2501V20.2501V18.7501H86.65V29.3501H88.65V23.9501C88.65 21.9501 89.65 20.5501 91.25 20.4501C92.75 20.4501 93.65 21.4501 93.65 23.0501V29.3501H95.65V23.7501C95.65 21.3501 97.05 20.4501 98.25 20.4501C99.75 20.4501 100.65 21.4501 100.65 23.0501V29.3501H102.65V22.8501C102.75 20.2501 101.25 18.4501 98.75 18.4501Z" fill="#756257"/>
<path d="M109.95 27.55L106.35 18.65H104.15L108.95 30.25C108.65 31.15 108.25 31.45 107.25 31.45H104.75V33.45H107.25C109.05 33.45 110.05 32.65 110.75 30.85L115.45 18.65H113.35L109.95 27.55Z" fill="#756257"/>
</svg>
